<svg width="497px" height="249px" xmlns="http://www.w3.org/2000/svg">
<rect x="0" y="0" width="497" height="249" stroke="rgb(255,255,255)" stroke-opacity="1.0" stroke-width="1px" fill="rgb(255,255,255)" fill-opacity="1.0"/>
<rect x="311" y="32" width="30" height="30" stroke="rgb(0,0,0)" stroke-opacity="1.0" stroke-width="1px" fill="rgb(0,0,0)" fill-opacity="1.0"/>
<rect x="94" y="63" width="30" height="30" stroke="rgb(0,0,0)" stroke-opacity="1.0" stroke-width="1px" fill="rgb(0,0,0)" fill-opacity="1.0"/>
<rect x="249" y="94" width="30" height="30" stroke="rgb(0,0,0)" stroke-opacity="1.0" stroke-width="1px" fill="rgb(0,0,0)" fill-opacity="1.0"/>
<rect x="435" y="94" width="30" height="30" stroke="rgb(0,0,0)" stroke-opacity="1.0" stroke-width="1px" fill="rgb(0,0,0)" fill-opacity="1.0"/>
<rect x="156" y="125" width="30" height="30" stroke="rgb(0,0,0)" stroke-opacity="1.0" stroke-width="1px" fill="rgb(0,0,0)" fill-opacity="1.0"/>
<rect x="187" y="125" width="30" height="30" stroke="rgb(0,0,0)" stroke-opacity="1.0" stroke-width="1px" fill="rgb(0,0,0)" fill-opacity="1.0"/>
<rect x="249" y="125" width="30" height="30" stroke="rgb(0,0,0)" stroke-opacity="1.0" stroke-width="1px" fill="rgb(0,0,0)" fill-opacity="1.0"/>
<rect x="311" y="125" width="30" height="30" stroke="rgb(0,0,0)" stroke-opacity="1.0" stroke-width="1px" fill="rgb(0,0,0)" fill-opacity="1.0"/>
<rect x="63" y="156" width="30" height="30" stroke="rgb(0,0,0)" stroke-opacity="1.0" stroke-width="1px" fill="rgb(0,0,0)" fill-opacity="1.0"/>
<rect x="94" y="156" width="30" height="30" stroke="rgb(0,0,0)" stroke-opacity="1.0" stroke-width="1px" fill="rgb(0,0,0)" fill-opacity="1.0"/>
<rect x="187" y="156" width="30" height="30" stroke="rgb(0,0,0)" stroke-opacity="1.0" stroke-width="1px" fill="rgb(0,0,0)" fill-opacity="1.0"/>
<rect x="280" y="156" width="30" height="30" stroke="rgb(0,0,0)" stroke-opacity="1.0" stroke-width="1px" fill="rgb(0,0,0)" fill-opacity="1.0"/>
<rect x="373" y="156" width="30" height="30" stroke="rgb(0,0,0)" stroke-opacity="1.0" stroke-width="1px" fill="rgb(0,0,0)" fill-opacity="1.0"/>
<rect x="404" y="156" width="30" height="30" stroke="rgb(0,0,0)" stroke-opacity="1.0" stroke-width="1px" fill="rgb(0,0,0)" fill-opacity="1.0"/>
<rect x="63" y="187" width="30" height="30" stroke="rgb(0,0,0)" stroke-opacity="1.0" stroke-width="1px" fill="rgb(0,0,0)" fill-opacity="1.0"/>
<rect x="125" y="187" width="30" height="30" stroke="rgb(0,0,0)" stroke-opacity="1.0" stroke-width="1px" fill="rgb(0,0,0)" fill-opacity="1.0"/>
<rect x="218" y="187" width="30" height="30" stroke="rgb(0,0,0)" stroke-opacity="1.0" stroke-width="1px" fill="rgb(0,0,0)" fill-opacity="1.0"/>
<rect x="249" y="187" width="30" height="30" stroke="rgb(0,0,0)" stroke-opacity="1.0" stroke-width="1px" fill="rgb(0,0,0)" fill-opacity="1.0"/>
<rect x="342" y="187" width="30" height="30" stroke="rgb(0,0,0)" stroke-opacity="1.0" stroke-width="1px" fill="rgb(0,0,0)" fill-opacity="1.0"/>
<rect x="404" y="187" width="30" height="30" stroke="rgb(0,0,0)" stroke-opacity="1.0" stroke-width="1px" fill="rgb(0,0,0)" fill-opacity="1.0"/>
<rect x="156" y="218" width="30" height="30" stroke="rgb(0,0,0)" stroke-opacity="1.0" stroke-width="1px" fill="rgb(0,0,0)" fill-opacity="1.0"/>
<rect x="187" y="218" width="30" height="30" stroke="rgb(0,0,0)" stroke-opacity="1.0" stroke-width="1px" fill="rgb(0,0,0)" fill-opacity="1.0"/>
<rect x="218" y="218" width="30" height="30" stroke="rgb(0,0,0)" stroke-opacity="1.0" stroke-width="1px" fill="rgb(0,0,0)" fill-opacity="1.0"/>
<rect x="249" y="218" width="30" height="30" stroke="rgb(0,0,0)" stroke-opacity="1.0" stroke-width="1px" fill="rgb(0,0,0)" fill-opacity="1.0"/>
<rect x="280" y="218" width="30" height="30" stroke="rgb(0,0,0)" stroke-opacity="1.0" stroke-width="1px" fill="rgb(0,0,0)" fill-opacity="1.0"/>
<rect x="311" y="218" width="30" height="30" stroke="rgb(0,0,0)" stroke-opacity="1.0" stroke-width="1px" fill="rgb(0,0,0)" fill-opacity="1.0"/>
<rect x="0" y="0" width="1" height="249" stroke="rgb(127,191,255)" stroke-opacity="0.75" stroke-width="1px" fill="rgb(127,191,255)" fill-opacity="0.75"/>
<rect x="31" y="0" width="1" height="249" stroke="rgb(127,191,255)" stroke-opacity="0.75" stroke-width="1px" fill="rgb(127,191,255)" fill-opacity="0.75"/>
<rect x="62" y="0" width="1" height="249" stroke="rgb(127,191,255)" stroke-opacity="0.75" stroke-width="1px" fill="rgb(127,191,255)" fill-opacity="0.75"/>
<rect x="93" y="0" width="1" height="249" stroke="rgb(127,191,255)" stroke-opacity="0.75" stroke-width="1px" fill="rgb(127,191,255)" fill-opacity="0.75"/>
<rect x="124" y="0" width="1" height="249" stroke="rgb(127,191,255)" stroke-opacity="0.75" stroke-width="1px" fill="rgb(127,191,255)" fill-opacity="0.75"/>
<rect x="155" y="0" width="1" height="249" stroke="rgb(127,191,255)" stroke-opacity="0.75" stroke-width="1px" fill="rgb(127,191,255)" fill-opacity="0.75"/>
<rect x="186" y="0" width="1" height="249" stroke="rgb(127,191,255)" stroke-opacity="0.75" stroke-width="1px" fill="rgb(127,191,255)" fill-opacity="0.75"/>
<rect x="217" y="0" width="1" height="249" stroke="rgb(127,191,255)" stroke-opacity="0.75" stroke-width="1px" fill="rgb(127,191,255)" fill-opacity="0.75"/>
<rect x="248" y="0" width="1" height="249" stroke="rgb(127,191,255)" stroke-opacity="0.75" stroke-width="1px" fill="rgb(127,191,255)" fill-opacity="0.75"/>
<rect x="279" y="0" width="1" height="249" stroke="rgb(127,191,255)" stroke-opacity="0.75" stroke-width="1px" fill="rgb(127,191,255)" fill-opacity="0.75"/>
<rect x="310" y="0" width="1" height="249" stroke="rgb(127,191,255)" stroke-opacity="0.75" stroke-width="1px" fill="rgb(127,191,255)" fill-opacity="0.75"/>
<rect x="341" y="0" width="1" height="249" stroke="rgb(127,191,255)" stroke-opacity="0.75" stroke-width="1px" fill="rgb(127,191,255)" fill-opacity="0.75"/>
<rect x="372" y="0" width="1" height="249" stroke="rgb(127,191,255)" stroke-opacity="0.75" stroke-width="1px" fill="rgb(127,191,255)" fill-opacity="0.75"/>
<rect x="403" y="0" width="1" height="249" stroke="rgb(127,191,255)" stroke-opacity="0.75" stroke-width="1px" fill="rgb(127,191,255)" fill-opacity="0.75"/>
<rect x="434" y="0" width="1" height="249" stroke="rgb(127,191,255)" stroke-opacity="0.75" stroke-width="1px" fill="rgb(127,191,255)" fill-opacity="0.75"/>
<rect x="465" y="0" width="1" height="249" stroke="rgb(127,191,255)" stroke-opacity="0.75" stroke-width="1px" fill="rgb(127,191,255)" fill-opacity="0.75"/>
<rect x="496" y="0" width="1" height="249" stroke="rgb(127,191,255)" stroke-opacity="0.75" stroke-width="1px" fill="rgb(127,191,255)" fill-opacity="0.75"/>
<rect x="0" y="0" width="497" height="1" stroke="rgb(127,191,255)" stroke-opacity="0.75" stroke-width="1px" fill="rgb(127,191,255)" fill-opacity="0.75"/>
<rect x="0" y="31" width="497" height="1" stroke="rgb(127,191,255)" stroke-opacity="0.75" stroke-width="1px" fill="rgb(127,191,255)" fill-opacity="0.75"/>
<rect x="0" y="62" width="497" height="1" stroke="rgb(127,191,255)" stroke-opacity="0.75" stroke-width="1px" fill="rgb(127,191,255)" fill-opacity="0.75"/>
<rect x="0" y="93" width="497" height="1" stroke="rgb(127,191,255)" stroke-opacity="0.75" stroke-width="1px" fill="rgb(127,191,255)" fill-opacity="0.75"/>
<rect x="0" y="124" width="497" height="1" stroke="rgb(127,191,255)" stroke-opacity="0.75" stroke-width="1px" fill="rgb(127,191,255)" fill-opacity="0.75"/>
<rect x="0" y="155" width="497" height="1" stroke="rgb(127,191,255)" stroke-opacity="0.75" stroke-width="1px" fill="rgb(127,191,255)" fill-opacity="0.75"/>
<rect x="0" y="186" width="497" height="1" stroke="rgb(127,191,255)" stroke-opacity="0.75" stroke-width="1px" fill="rgb(127,191,255)" fill-opacity="0.75"/>
<rect x="0" y="217" width="497" height="1" stroke="rgb(127,191,255)" stroke-opacity="0.75" stroke-width="1px" fill="rgb(127,191,255)" fill-opacity="0.75"/>
<rect x="0" y="248" width="497" height="1" stroke="rgb(127,191,255)" stroke-opacity="0.75" stroke-width="1px" fill="rgb(127,191,255)" fill-opacity="0.75"/>
<rect x="0" y="0" width="1" height="249" stroke="rgb(8,69,183)" stroke-opacity="0.75" stroke-width="1px" fill="rgb(8,69,183)" fill-opacity="0.75"/>
<rect x="248" y="0" width="1" height="249" stroke="rgb(8,69,183)" stroke-opacity="0.75" stroke-width="1px" fill="rgb(8,69,183)" fill-opacity="0.75"/>
<rect x="496" y="0" width="1" height="249" stroke="rgb(8,69,183)" stroke-opacity="0.75" stroke-width="1px" fill="rgb(8,69,183)" fill-opacity="0.75"/>
<rect x="0" y="0" width="497" height="1" stroke="rgb(8,69,183)" stroke-opacity="0.75" stroke-width="1px" fill="rgb(8,69,183)" fill-opacity="0.75"/>
<rect x="0" y="248" width="497" height="1" stroke="rgb(8,69,183)" stroke-opacity="0.75" stroke-width="1px" fill="rgb(8,69,183)" fill-opacity="0.75"/>
</svg>