<svg width="249px" height="497px" xmlns="http://www.w3.org/2000/svg">
<rect x="0" y="0" width="249" height="497" stroke="rgb(255,255,255)" stroke-opacity="1.0" stroke-width="1px" fill="rgb(255,255,255)" fill-opacity="1.0"/>
<rect x="125" y="32" width="30" height="30" stroke="rgb(0,0,0)" stroke-opacity="1.0" stroke-width="1px" fill="rgb(0,0,0)" fill-opacity="1.0"/>
<rect x="156" y="32" width="30" height="30" stroke="rgb(0,0,0)" stroke-opacity="1.0" stroke-width="1px" fill="rgb(0,0,0)" fill-opacity="1.0"/>
<rect x="94" y="63" width="30" height="30" stroke="rgb(0,0,0)" stroke-opacity="1.0" stroke-width="1px" fill="rgb(0,0,0)" fill-opacity="1.0"/>
<rect x="187" y="63" width="30" height="30" stroke="rgb(0,0,0)" stroke-opacity="1.0" stroke-width="1px" fill="rgb(0,0,0)" fill-opacity="1.0"/>
<rect x="63" y="94" width="30" height="30" stroke="rgb(0,0,0)" stroke-opacity="1.0" stroke-width="1px" fill="rgb(0,0,0)" fill-opacity="1.0"/>
<rect x="187" y="94" width="30" height="30" stroke="rgb(0,0,0)" stroke-opacity="1.0" stroke-width="1px" fill="rgb(0,0,0)" fill-opacity="1.0"/>
<rect x="63" y="125" width="30" height="30" stroke="rgb(0,0,0)" stroke-opacity="1.0" stroke-width="1px" fill="rgb(0,0,0)" fill-opacity="1.0"/>
<rect x="125" y="125" width="30" height="30" stroke="rgb(0,0,0)" stroke-opacity="1.0" stroke-width="1px" fill="rgb(0,0,0)" fill-opacity="1.0"/>
<rect x="156" y="125" width="30" height="30" stroke="rgb(0,0,0)" stroke-opacity="1.0" stroke-width="1px" fill="rgb(0,0,0)" fill-opacity="1.0"/>
<rect x="63" y="156" width="30" height="30" stroke="rgb(0,0,0)" stroke-opacity="1.0" stroke-width="1px" fill="rgb(0,0,0)" fill-opacity="1.0"/>
<rect x="63" y="187" width="30" height="30" stroke="rgb(0,0,0)" stroke-opacity="1.0" stroke-width="1px" fill="rgb(0,0,0)" fill-opacity="1.0"/>
<rect x="94" y="187" width="30" height="30" stroke="rgb(0,0,0)" stroke-opacity="1.0" stroke-width="1px" fill="rgb(0,0,0)" fill-opacity="1.0"/>
<rect x="32" y="218" width="30" height="30" stroke="rgb(0,0,0)" stroke-opacity="1.0" stroke-width="1px" fill="rgb(0,0,0)" fill-opacity="1.0"/>
<rect x="63" y="218" width="30" height="30" stroke="rgb(0,0,0)" stroke-opacity="1.0" stroke-width="1px" fill="rgb(0,0,0)" fill-opacity="1.0"/>
<rect x="94" y="218" width="30" height="30" stroke="rgb(0,0,0)" stroke-opacity="1.0" stroke-width="1px" fill="rgb(0,0,0)" fill-opacity="1.0"/>
<rect x="1" y="249" width="30" height="30" stroke="rgb(0,0,0)" stroke-opacity="1.0" stroke-width="1px" fill="rgb(0,0,0)" fill-opacity="1.0"/>
<rect x="63" y="249" width="30" height="30" stroke="rgb(0,0,0)" stroke-opacity="1.0" stroke-width="1px" fill="rgb(0,0,0)" fill-opacity="1.0"/>
<rect x="94" y="249" width="30" height="30" stroke="rgb(0,0,0)" stroke-opacity="1.0" stroke-width="1px" fill="rgb(0,0,0)" fill-opacity="1.0"/>
<rect x="63" y="280" width="30" height="30" stroke="rgb(0,0,0)" stroke-opacity="1.0" stroke-width="1px" fill="rgb(0,0,0)" fill-opacity="1.0"/>
<rect x="94" y="280" width="30" height="30" stroke="rgb(0,0,0)" stroke-opacity="1.0" stroke-width="1px" fill="rgb(0,0,0)" fill-opacity="1.0"/>
<rect x="1" y="311" width="30" height="30" stroke="rgb(0,0,0)" stroke-opacity="1.0" stroke-width="1px" fill="rgb(0,0,0)" fill-opacity="1.0"/>
<rect x="63" y="311" width="30" height="30" stroke="rgb(0,0,0)" stroke-opacity="1.0" stroke-width="1px" fill="rgb(0,0,0)" fill-opacity="1.0"/>
<rect x="94" y="311" width="30" height="30" stroke="rgb(0,0,0)" stroke-opacity="1.0" stroke-width="1px" fill="rgb(0,0,0)" fill-opacity="1.0"/>
<rect x="32" y="342" width="30" height="30" stroke="rgb(0,0,0)" stroke-opacity="1.0" stroke-width="1px" fill="rgb(0,0,0)" fill-opacity="1.0"/>
<rect x="63" y="342" width="30" height="30" stroke="rgb(0,0,0)" stroke-opacity="1.0" stroke-width="1px" fill="rgb(0,0,0)" fill-opacity="1.0"/>
<rect x="94" y="342" width="30" height="30" stroke="rgb(0,0,0)" stroke-opacity="1.0" stroke-width="1px" fill="rgb(0,0,0)" fill-opacity="1.0"/>
<rect x="125" y="342" width="30" height="30" stroke="rgb(0,0,0)" stroke-opacity="1.0" stroke-width="1px" fill="rgb(0,0,0)" fill-opacity="1.0"/>
<rect x="63" y="373" width="30" height="30" stroke="rgb(0,0,0)" stroke-opacity="1.0" stroke-width="1px" fill="rgb(0,0,0)" fill-opacity="1.0"/>
<rect x="125" y="373" width="30" height="30" stroke="rgb(0,0,0)" stroke-opacity="1.0" stroke-width="1px" fill="rgb(0,0,0)" fill-opacity="1.0"/>
<rect x="63" y="404" width="30" height="30" stroke="rgb(0,0,0)" stroke-opacity="1.0" stroke-width="1px" fill="rgb(0,0,0)" fill-opacity="1.0"/>
<rect x="94" y="404" width="30" height="30" stroke="rgb(0,0,0)" stroke-opacity="1.0" stroke-width="1px" fill="rgb(0,0,0)" fill-opacity="1.0"/>
<rect x="0" y="0" width="1" height="497" stroke="rgb(127,191,255)" stroke-opacity="0.75" stroke-width="1px" fill="rgb(127,191,255)" fill-opacity="0.75"/>
<rect x="31" y="0" width="1" height="497" stroke="rgb(127,191,255)" stroke-opacity="0.75" stroke-width="1px" fill="rgb(127,191,255)" fill-opacity="0.75"/>
<rect x="62" y="0" width="1" height="497" stroke="rgb(127,191,255)" stroke-opacity="0.75" stroke-width="1px" fill="rgb(127,191,255)" fill-opacity="0.75"/>
<rect x="93" y="0" width="1" height="497" stroke="rgb(127,191,255)" stroke-opacity="0.75" stroke-width="1px" fill="rgb(127,191,255)" fill-opacity="0.75"/>
<rect x="124" y="0" width="1" height="497" stroke="rgb(127,191,255)" stroke-opacity="0.75" stroke-width="1px" fill="rgb(127,191,255)" fill-opacity="0.75"/>
<rect x="155" y="0" width="1" height="497" stroke="rgb(127,191,255)" stroke-opacity="0.75" stroke-width="1px" fill="rgb(127,191,255)" fill-opacity="0.75"/>
<rect x="186" y="0" width="1" height="497" stroke="rgb(127,191,255)" stroke-opacity="0.75" stroke-width="1px" fill="rgb(127,191,255)" fill-opacity="0.75"/>
<rect x="217" y="0" width="1" height="497" stroke="rgb(127,191,255)" stroke-opacity="0.75" stroke-width="1px" fill="rgb(127,191,255)" fill-opacity="0.75"/>
<rect x="248" y="0" width="1" height="497" stroke="rgb(127,191,255)" stroke-opacity="0.75" stroke-width="1px" fill="rgb(127,191,255)" fill-opacity="0.75"/>
<rect x="0" y="0" width="249" height="1" stroke="rgb(127,191,255)" stroke-opacity="0.75" stroke-width="1px" fill="rgb(127,191,255)" fill-opacity="0.75"/>
<rect x="0" y="31" width="249" height="1" stroke="rgb(127,191,255)" stroke-opacity="0.75" stroke-width="1px" fill="rgb(127,191,255)" fill-opacity="0.75"/>
<rect x="0" y="62" width="249" height="1" stroke="rgb(127,191,255)" stroke-opacity="0.75" stroke-width="1px" fill="rgb(127,191,255)" fill-opacity="0.75"/>
<rect x="0" y="93" width="249" height="1" stroke="rgb(127,191,255)" stroke-opacity="0.75" stroke-width="1px" fill="rgb(127,191,255)" fill-opacity="0.75"/>
<rect x="0" y="124" width="249" height="1" stroke="rgb(127,191,255)" stroke-opacity="0.75" stroke-width="1px" fill="rgb(127,191,255)" fill-opacity="0.75"/>
<rect x="0" y="155" width="249" height="1" stroke="rgb(127,191,255)" stroke-opacity="0.75" stroke-width="1px" fill="rgb(127,191,255)" fill-opacity="0.75"/>
<rect x="0" y="186" width="249" height="1" stroke="rgb(127,191,255)" stroke-opacity="0.75" stroke-width="1px" fill="rgb(127,191,255)" fill-opacity="0.75"/>
<rect x="0" y="217" width="249" height="1" stroke="rgb(127,191,255)" stroke-opacity="0.75" stroke-width="1px" fill="rgb(127,191,255)" fill-opacity="0.75"/>
<rect x="0" y="248" width="249" height="1" stroke="rgb(127,191,255)" stroke-opacity="0.75" stroke-width="1px" fill="rgb(127,191,255)" fill-opacity="0.75"/>
<rect x="0" y="279" width="249" height="1" stroke="rgb(127,191,255)" stroke-opacity="0.75" stroke-width="1px" fill="rgb(127,191,255)" fill-opacity="0.75"/>
<rect x="0" y="310" width="249" height="1" stroke="rgb(127,191,255)" stroke-opacity="0.75" stroke-width="1px" fill="rgb(127,191,255)" fill-opacity="0.75"/>
<rect x="0" y="341" width="249" height="1" stroke="rgb(127,191,255)" stroke-opacity="0.75" stroke-width="1px" fill="rgb(127,191,255)" fill-opacity="0.75"/>
<rect x="0" y="372" width="249" height="1" stroke="rgb(127,191,255)" stroke-opacity="0.75" stroke-width="1px" fill="rgb(127,191,255)" fill-opacity="0.75"/>
<rect x="0" y="403" width="249" height="1" stroke="rgb(127,191,255)" stroke-opacity="0.75" stroke-width="1px" fill="rgb(127,191,255)" fill-opacity="0.75"/>
<rect x="0" y="434" width="249" height="1" stroke="rgb(127,191,255)" stroke-opacity="0.75" stroke-width="1px" fill="rgb(127,191,255)" fill-opacity="0.75"/>
<rect x="0" y="465" width="249" height="1" stroke="rgb(127,191,255)" stroke-opacity="0.75" stroke-width="1px" fill="rgb(127,191,255)" fill-opacity="0.75"/>
<rect x="0" y="496" width="249" height="1" stroke="rgb(127,191,255)" stroke-opacity="0.75" stroke-width="1px" fill="rgb(127,191,255)" fill-opacity="0.75"/>
<rect x="0" y="0" width="1" height="497" stroke="rgb(8,69,183)" stroke-opacity="0.75" stroke-width="1px" fill="rgb(8,69,183)" fill-opacity="0.75"/>
<rect x="248" y="0" width="1" height="497" stroke="rgb(8,69,183)" stroke-opacity="0.75" stroke-width="1px" fill="rgb(8,69,183)" fill-opacity="0.75"/>
<rect x="0" y="0" width="249" height="1" stroke="rgb(8,69,183)" stroke-opacity="0.75" stroke-width="1px" fill="rgb(8,69,183)" fill-opacity="0.75"/>
<rect x="0" y="248" width="249" height="1" stroke="rgb(8,69,183)" stroke-opacity="0.75" stroke-width="1px" fill="rgb(8,69,183)" fill-opacity="0.75"/>
<rect x="0" y="496" width="249" height="1" stroke="rgb(8,69,183)" stroke-opacity="0.75" stroke-width="1px" fill="rgb(8,69,183)" fill-opacity="0.75"/>
</svg>