<svg width="745px" height="497px" xmlns="http://www.w3.org/2000/svg">
<rect x="0" y="0" width="745" height="497" stroke="rgb(255,255,255)" stroke-opacity="1.0" stroke-width="1px" fill="rgb(255,255,255)" fill-opacity="1.0"/>
<rect x="187" y="1" width="30" height="30" stroke="rgb(0,0,0)" stroke-opacity="1.0" stroke-width="1px" fill="rgb(0,0,0)" fill-opacity="1.0"/>
<rect x="218" y="1" width="30" height="30" stroke="rgb(0,0,0)" stroke-opacity="1.0" stroke-width="1px" fill="rgb(0,0,0)" fill-opacity="1.0"/>
<rect x="280" y="1" width="30" height="30" stroke="rgb(0,0,0)" stroke-opacity="1.0" stroke-width="1px" fill="rgb(0,0,0)" fill-opacity="1.0"/>
<rect x="311" y="1" width="30" height="30" stroke="rgb(0,0,0)" stroke-opacity="1.0" stroke-width="1px" fill="rgb(0,0,0)" fill-opacity="1.0"/>
<rect x="125" y="32" width="30" height="30" stroke="rgb(0,0,0)" stroke-opacity="1.0" stroke-width="1px" fill="rgb(0,0,0)" fill-opacity="1.0"/>
<rect x="156" y="32" width="30" height="30" stroke="rgb(0,0,0)" stroke-opacity="1.0" stroke-width="1px" fill="rgb(0,0,0)" fill-opacity="1.0"/>
<rect x="187" y="32" width="30" height="30" stroke="rgb(0,0,0)" stroke-opacity="1.0" stroke-width="1px" fill="rgb(0,0,0)" fill-opacity="1.0"/>
<rect x="218" y="32" width="30" height="30" stroke="rgb(0,0,0)" stroke-opacity="1.0" stroke-width="1px" fill="rgb(0,0,0)" fill-opacity="1.0"/>
<rect x="249" y="32" width="30" height="30" stroke="rgb(0,0,0)" stroke-opacity="1.0" stroke-width="1px" fill="rgb(0,0,0)" fill-opacity="1.0"/>
<rect x="280" y="32" width="30" height="30" stroke="rgb(0,0,0)" stroke-opacity="1.0" stroke-width="1px" fill="rgb(0,0,0)" fill-opacity="1.0"/>
<rect x="311" y="32" width="30" height="30" stroke="rgb(0,0,0)" stroke-opacity="1.0" stroke-width="1px" fill="rgb(0,0,0)" fill-opacity="1.0"/>
<rect x="342" y="32" width="30" height="30" stroke="rgb(0,0,0)" stroke-opacity="1.0" stroke-width="1px" fill="rgb(0,0,0)" fill-opacity="1.0"/>
<rect x="435" y="32" width="30" height="30" stroke="rgb(0,0,0)" stroke-opacity="1.0" stroke-width="1px" fill="rgb(0,0,0)" fill-opacity="1.0"/>
<rect x="466" y="32" width="30" height="30" stroke="rgb(0,0,0)" stroke-opacity="1.0" stroke-width="1px" fill="rgb(0,0,0)" fill-opacity="1.0"/>
<rect x="528" y="32" width="30" height="30" stroke="rgb(0,0,0)" stroke-opacity="1.0" stroke-width="1px" fill="rgb(0,0,0)" fill-opacity="1.0"/>
<rect x="559" y="32" width="30" height="30" stroke="rgb(0,0,0)" stroke-opacity="1.0" stroke-width="1px" fill="rgb(0,0,0)" fill-opacity="1.0"/>
<rect x="94" y="63" width="30" height="30" stroke="rgb(0,0,0)" stroke-opacity="1.0" stroke-width="1px" fill="rgb(0,0,0)" fill-opacity="1.0"/>
<rect x="125" y="63" width="30" height="30" stroke="rgb(0,0,0)" stroke-opacity="1.0" stroke-width="1px" fill="rgb(0,0,0)" fill-opacity="1.0"/>
<rect x="156" y="63" width="30" height="30" stroke="rgb(0,0,0)" stroke-opacity="1.0" stroke-width="1px" fill="rgb(0,0,0)" fill-opacity="1.0"/>
<rect x="187" y="63" width="30" height="30" stroke="rgb(0,0,0)" stroke-opacity="1.0" stroke-width="1px" fill="rgb(0,0,0)" fill-opacity="1.0"/>
<rect x="218" y="63" width="30" height="30" stroke="rgb(0,0,0)" stroke-opacity="1.0" stroke-width="1px" fill="rgb(0,0,0)" fill-opacity="1.0"/>
<rect x="249" y="63" width="30" height="30" stroke="rgb(0,0,0)" stroke-opacity="1.0" stroke-width="1px" fill="rgb(0,0,0)" fill-opacity="1.0"/>
<rect x="280" y="63" width="30" height="30" stroke="rgb(0,0,0)" stroke-opacity="1.0" stroke-width="1px" fill="rgb(0,0,0)" fill-opacity="1.0"/>
<rect x="311" y="63" width="30" height="30" stroke="rgb(0,0,0)" stroke-opacity="1.0" stroke-width="1px" fill="rgb(0,0,0)" fill-opacity="1.0"/>
<rect x="342" y="63" width="30" height="30" stroke="rgb(0,0,0)" stroke-opacity="1.0" stroke-width="1px" fill="rgb(0,0,0)" fill-opacity="1.0"/>
<rect x="373" y="63" width="30" height="30" stroke="rgb(0,0,0)" stroke-opacity="1.0" stroke-width="1px" fill="rgb(0,0,0)" fill-opacity="1.0"/>
<rect x="435" y="63" width="30" height="30" stroke="rgb(0,0,0)" stroke-opacity="1.0" stroke-width="1px" fill="rgb(0,0,0)" fill-opacity="1.0"/>
<rect x="466" y="63" width="30" height="30" stroke="rgb(0,0,0)" stroke-opacity="1.0" stroke-width="1px" fill="rgb(0,0,0)" fill-opacity="1.0"/>
<rect x="497" y="63" width="30" height="30" stroke="rgb(0,0,0)" stroke-opacity="1.0" stroke-width="1px" fill="rgb(0,0,0)" fill-opacity="1.0"/>
<rect x="528" y="63" width="30" height="30" stroke="rgb(0,0,0)" stroke-opacity="1.0" stroke-width="1px" fill="rgb(0,0,0)" fill-opacity="1.0"/>
<rect x="559" y="63" width="30" height="30" stroke="rgb(0,0,0)" stroke-opacity="1.0" stroke-width="1px" fill="rgb(0,0,0)" fill-opacity="1.0"/>
<rect x="590" y="63" width="30" height="30" stroke="rgb(0,0,0)" stroke-opacity="1.0" stroke-width="1px" fill="rgb(0,0,0)" fill-opacity="1.0"/>
<rect x="621" y="63" width="30" height="30" stroke="rgb(0,0,0)" stroke-opacity="1.0" stroke-width="1px" fill="rgb(0,0,0)" fill-opacity="1.0"/>
<rect x="652" y="63" width="30" height="30" stroke="rgb(0,0,0)" stroke-opacity="1.0" stroke-width="1px" fill="rgb(0,0,0)" fill-opacity="1.0"/>
<rect x="94" y="94" width="30" height="30" stroke="rgb(0,0,0)" stroke-opacity="1.0" stroke-width="1px" fill="rgb(0,0,0)" fill-opacity="1.0"/>
<rect x="125" y="94" width="30" height="30" stroke="rgb(0,0,0)" stroke-opacity="1.0" stroke-width="1px" fill="rgb(0,0,0)" fill-opacity="1.0"/>
<rect x="156" y="94" width="30" height="30" stroke="rgb(0,0,0)" stroke-opacity="1.0" stroke-width="1px" fill="rgb(0,0,0)" fill-opacity="1.0"/>
<rect x="187" y="94" width="30" height="30" stroke="rgb(0,0,0)" stroke-opacity="1.0" stroke-width="1px" fill="rgb(0,0,0)" fill-opacity="1.0"/>
<rect x="218" y="94" width="30" height="30" stroke="rgb(0,0,0)" stroke-opacity="1.0" stroke-width="1px" fill="rgb(0,0,0)" fill-opacity="1.0"/>
<rect x="249" y="94" width="30" height="30" stroke="rgb(0,0,0)" stroke-opacity="1.0" stroke-width="1px" fill="rgb(0,0,0)" fill-opacity="1.0"/>
<rect x="280" y="94" width="30" height="30" stroke="rgb(0,0,0)" stroke-opacity="1.0" stroke-width="1px" fill="rgb(0,0,0)" fill-opacity="1.0"/>
<rect x="311" y="94" width="30" height="30" stroke="rgb(0,0,0)" stroke-opacity="1.0" stroke-width="1px" fill="rgb(0,0,0)" fill-opacity="1.0"/>
<rect x="342" y="94" width="30" height="30" stroke="rgb(0,0,0)" stroke-opacity="1.0" stroke-width="1px" fill="rgb(0,0,0)" fill-opacity="1.0"/>
<rect x="373" y="94" width="30" height="30" stroke="rgb(0,0,0)" stroke-opacity="1.0" stroke-width="1px" fill="rgb(0,0,0)" fill-opacity="1.0"/>
<rect x="435" y="94" width="30" height="30" stroke="rgb(0,0,0)" stroke-opacity="1.0" stroke-width="1px" fill="rgb(0,0,0)" fill-opacity="1.0"/>
<rect x="466" y="94" width="30" height="30" stroke="rgb(0,0,0)" stroke-opacity="1.0" stroke-width="1px" fill="rgb(0,0,0)" fill-opacity="1.0"/>
<rect x="497" y="94" width="30" height="30" stroke="rgb(0,0,0)" stroke-opacity="1.0" stroke-width="1px" fill="rgb(0,0,0)" fill-opacity="1.0"/>
<rect x="528" y="94" width="30" height="30" stroke="rgb(0,0,0)" stroke-opacity="1.0" stroke-width="1px" fill="rgb(0,0,0)" fill-opacity="1.0"/>
<rect x="559" y="94" width="30" height="30" stroke="rgb(0,0,0)" stroke-opacity="1.0" stroke-width="1px" fill="rgb(0,0,0)" fill-opacity="1.0"/>
<rect x="590" y="94" width="30" height="30" stroke="rgb(0,0,0)" stroke-opacity="1.0" stroke-width="1px" fill="rgb(0,0,0)" fill-opacity="1.0"/>
<rect x="621" y="94" width="30" height="30" stroke="rgb(0,0,0)" stroke-opacity="1.0" stroke-width="1px" fill="rgb(0,0,0)" fill-opacity="1.0"/>
<rect x="652" y="94" width="30" height="30" stroke="rgb(0,0,0)" stroke-opacity="1.0" stroke-width="1px" fill="rgb(0,0,0)" fill-opacity="1.0"/>
<rect x="94" y="125" width="30" height="30" stroke="rgb(0,0,0)" stroke-opacity="1.0" stroke-width="1px" fill="rgb(0,0,0)" fill-opacity="1.0"/>
<rect x="125" y="125" width="30" height="30" stroke="rgb(0,0,0)" stroke-opacity="1.0" stroke-width="1px" fill="rgb(0,0,0)" fill-opacity="1.0"/>
<rect x="156" y="125" width="30" height="30" stroke="rgb(0,0,0)" stroke-opacity="1.0" stroke-width="1px" fill="rgb(0,0,0)" fill-opacity="1.0"/>
<rect x="187" y="125" width="30" height="30" stroke="rgb(0,0,0)" stroke-opacity="1.0" stroke-width="1px" fill="rgb(0,0,0)" fill-opacity="1.0"/>
<rect x="218" y="125" width="30" height="30" stroke="rgb(0,0,0)" stroke-opacity="1.0" stroke-width="1px" fill="rgb(0,0,0)" fill-opacity="1.0"/>
<rect x="249" y="125" width="30" height="30" stroke="rgb(0,0,0)" stroke-opacity="1.0" stroke-width="1px" fill="rgb(0,0,0)" fill-opacity="1.0"/>
<rect x="280" y="125" width="30" height="30" stroke="rgb(0,0,0)" stroke-opacity="1.0" stroke-width="1px" fill="rgb(0,0,0)" fill-opacity="1.0"/>
<rect x="311" y="125" width="30" height="30" stroke="rgb(0,0,0)" stroke-opacity="1.0" stroke-width="1px" fill="rgb(0,0,0)" fill-opacity="1.0"/>
<rect x="342" y="125" width="30" height="30" stroke="rgb(0,0,0)" stroke-opacity="1.0" stroke-width="1px" fill="rgb(0,0,0)" fill-opacity="1.0"/>
<rect x="373" y="125" width="30" height="30" stroke="rgb(0,0,0)" stroke-opacity="1.0" stroke-width="1px" fill="rgb(0,0,0)" fill-opacity="1.0"/>
<rect x="404" y="125" width="30" height="30" stroke="rgb(0,0,0)" stroke-opacity="1.0" stroke-width="1px" fill="rgb(0,0,0)" fill-opacity="1.0"/>
<rect x="435" y="125" width="30" height="30" stroke="rgb(0,0,0)" stroke-opacity="1.0" stroke-width="1px" fill="rgb(0,0,0)" fill-opacity="1.0"/>
<rect x="466" y="125" width="30" height="30" stroke="rgb(0,0,0)" stroke-opacity="1.0" stroke-width="1px" fill="rgb(0,0,0)" fill-opacity="1.0"/>
<rect x="497" y="125" width="30" height="30" stroke="rgb(0,0,0)" stroke-opacity="1.0" stroke-width="1px" fill="rgb(0,0,0)" fill-opacity="1.0"/>
<rect x="528" y="125" width="30" height="30" stroke="rgb(0,0,0)" stroke-opacity="1.0" stroke-width="1px" fill="rgb(0,0,0)" fill-opacity="1.0"/>
<rect x="559" y="125" width="30" height="30" stroke="rgb(0,0,0)" stroke-opacity="1.0" stroke-width="1px" fill="rgb(0,0,0)" fill-opacity="1.0"/>
<rect x="590" y="125" width="30" height="30" stroke="rgb(0,0,0)" stroke-opacity="1.0" stroke-width="1px" fill="rgb(0,0,0)" fill-opacity="1.0"/>
<rect x="621" y="125" width="30" height="30" stroke="rgb(0,0,0)" stroke-opacity="1.0" stroke-width="1px" fill="rgb(0,0,0)" fill-opacity="1.0"/>
<rect x="32" y="156" width="30" height="30" stroke="rgb(0,0,0)" stroke-opacity="1.0" stroke-width="1px" fill="rgb(0,0,0)" fill-opacity="1.0"/>
<rect x="63" y="156" width="30" height="30" stroke="rgb(0,0,0)" stroke-opacity="1.0" stroke-width="1px" fill="rgb(0,0,0)" fill-opacity="1.0"/>
<rect x="94" y="156" width="30" height="30" stroke="rgb(0,0,0)" stroke-opacity="1.0" stroke-width="1px" fill="rgb(0,0,0)" fill-opacity="1.0"/>
<rect x="125" y="156" width="30" height="30" stroke="rgb(0,0,0)" stroke-opacity="1.0" stroke-width="1px" fill="rgb(0,0,0)" fill-opacity="1.0"/>
<rect x="156" y="156" width="30" height="30" stroke="rgb(0,0,0)" stroke-opacity="1.0" stroke-width="1px" fill="rgb(0,0,0)" fill-opacity="1.0"/>
<rect x="187" y="156" width="30" height="30" stroke="rgb(0,0,0)" stroke-opacity="1.0" stroke-width="1px" fill="rgb(0,0,0)" fill-opacity="1.0"/>
<rect x="280" y="156" width="30" height="30" stroke="rgb(0,0,0)" stroke-opacity="1.0" stroke-width="1px" fill="rgb(0,0,0)" fill-opacity="1.0"/>
<rect x="311" y="156" width="30" height="30" stroke="rgb(0,0,0)" stroke-opacity="1.0" stroke-width="1px" fill="rgb(0,0,0)" fill-opacity="1.0"/>
<rect x="342" y="156" width="30" height="30" stroke="rgb(0,0,0)" stroke-opacity="1.0" stroke-width="1px" fill="rgb(0,0,0)" fill-opacity="1.0"/>
<rect x="373" y="156" width="30" height="30" stroke="rgb(0,0,0)" stroke-opacity="1.0" stroke-width="1px" fill="rgb(0,0,0)" fill-opacity="1.0"/>
<rect x="404" y="156" width="30" height="30" stroke="rgb(0,0,0)" stroke-opacity="1.0" stroke-width="1px" fill="rgb(0,0,0)" fill-opacity="1.0"/>
<rect x="435" y="156" width="30" height="30" stroke="rgb(0,0,0)" stroke-opacity="1.0" stroke-width="1px" fill="rgb(0,0,0)" fill-opacity="1.0"/>
<rect x="466" y="156" width="30" height="30" stroke="rgb(0,0,0)" stroke-opacity="1.0" stroke-width="1px" fill="rgb(0,0,0)" fill-opacity="1.0"/>
<rect x="497" y="156" width="30" height="30" stroke="rgb(0,0,0)" stroke-opacity="1.0" stroke-width="1px" fill="rgb(0,0,0)" fill-opacity="1.0"/>
<rect x="528" y="156" width="30" height="30" stroke="rgb(0,0,0)" stroke-opacity="1.0" stroke-width="1px" fill="rgb(0,0,0)" fill-opacity="1.0"/>
<rect x="559" y="156" width="30" height="30" stroke="rgb(0,0,0)" stroke-opacity="1.0" stroke-width="1px" fill="rgb(0,0,0)" fill-opacity="1.0"/>
<rect x="590" y="156" width="30" height="30" stroke="rgb(0,0,0)" stroke-opacity="1.0" stroke-width="1px" fill="rgb(0,0,0)" fill-opacity="1.0"/>
<rect x="621" y="156" width="30" height="30" stroke="rgb(0,0,0)" stroke-opacity="1.0" stroke-width="1px" fill="rgb(0,0,0)" fill-opacity="1.0"/>
<rect x="652" y="156" width="30" height="30" stroke="rgb(0,0,0)" stroke-opacity="1.0" stroke-width="1px" fill="rgb(0,0,0)" fill-opacity="1.0"/>
<rect x="683" y="156" width="30" height="30" stroke="rgb(0,0,0)" stroke-opacity="1.0" stroke-width="1px" fill="rgb(0,0,0)" fill-opacity="1.0"/>
<rect x="63" y="187" width="30" height="30" stroke="rgb(0,0,0)" stroke-opacity="1.0" stroke-width="1px" fill="rgb(0,0,0)" fill-opacity="1.0"/>
<rect x="94" y="187" width="30" height="30" stroke="rgb(0,0,0)" stroke-opacity="1.0" stroke-width="1px" fill="rgb(0,0,0)" fill-opacity="1.0"/>
<rect x="125" y="187" width="30" height="30" stroke="rgb(0,0,0)" stroke-opacity="1.0" stroke-width="1px" fill="rgb(0,0,0)" fill-opacity="1.0"/>
<rect x="156" y="187" width="30" height="30" stroke="rgb(0,0,0)" stroke-opacity="1.0" stroke-width="1px" fill="rgb(0,0,0)" fill-opacity="1.0"/>
<rect x="218" y="187" width="30" height="30" stroke="rgb(0,0,0)" stroke-opacity="1.0" stroke-width="1px" fill="rgb(0,0,0)" fill-opacity="1.0"/>
<rect x="249" y="187" width="30" height="30" stroke="rgb(0,0,0)" stroke-opacity="1.0" stroke-width="1px" fill="rgb(0,0,0)" fill-opacity="1.0"/>
<rect x="280" y="187" width="30" height="30" stroke="rgb(0,0,0)" stroke-opacity="1.0" stroke-width="1px" fill="rgb(0,0,0)" fill-opacity="1.0"/>
<rect x="311" y="187" width="30" height="30" stroke="rgb(0,0,0)" stroke-opacity="1.0" stroke-width="1px" fill="rgb(0,0,0)" fill-opacity="1.0"/>
<rect x="342" y="187" width="30" height="30" stroke="rgb(0,0,0)" stroke-opacity="1.0" stroke-width="1px" fill="rgb(0,0,0)" fill-opacity="1.0"/>
<rect x="373" y="187" width="30" height="30" stroke="rgb(0,0,0)" stroke-opacity="1.0" stroke-width="1px" fill="rgb(0,0,0)" fill-opacity="1.0"/>
<rect x="404" y="187" width="30" height="30" stroke="rgb(0,0,0)" stroke-opacity="1.0" stroke-width="1px" fill="rgb(0,0,0)" fill-opacity="1.0"/>
<rect x="435" y="187" width="30" height="30" stroke="rgb(0,0,0)" stroke-opacity="1.0" stroke-width="1px" fill="rgb(0,0,0)" fill-opacity="1.0"/>
<rect x="528" y="187" width="30" height="30" stroke="rgb(0,0,0)" stroke-opacity="1.0" stroke-width="1px" fill="rgb(0,0,0)" fill-opacity="1.0"/>
<rect x="559" y="187" width="30" height="30" stroke="rgb(0,0,0)" stroke-opacity="1.0" stroke-width="1px" fill="rgb(0,0,0)" fill-opacity="1.0"/>
<rect x="590" y="187" width="30" height="30" stroke="rgb(0,0,0)" stroke-opacity="1.0" stroke-width="1px" fill="rgb(0,0,0)" fill-opacity="1.0"/>
<rect x="621" y="187" width="30" height="30" stroke="rgb(0,0,0)" stroke-opacity="1.0" stroke-width="1px" fill="rgb(0,0,0)" fill-opacity="1.0"/>
<rect x="652" y="187" width="30" height="30" stroke="rgb(0,0,0)" stroke-opacity="1.0" stroke-width="1px" fill="rgb(0,0,0)" fill-opacity="1.0"/>
<rect x="683" y="187" width="30" height="30" stroke="rgb(0,0,0)" stroke-opacity="1.0" stroke-width="1px" fill="rgb(0,0,0)" fill-opacity="1.0"/>
<rect x="32" y="218" width="30" height="30" stroke="rgb(0,0,0)" stroke-opacity="1.0" stroke-width="1px" fill="rgb(0,0,0)" fill-opacity="1.0"/>
<rect x="63" y="218" width="30" height="30" stroke="rgb(0,0,0)" stroke-opacity="1.0" stroke-width="1px" fill="rgb(0,0,0)" fill-opacity="1.0"/>
<rect x="94" y="218" width="30" height="30" stroke="rgb(0,0,0)" stroke-opacity="1.0" stroke-width="1px" fill="rgb(0,0,0)" fill-opacity="1.0"/>
<rect x="125" y="218" width="30" height="30" stroke="rgb(0,0,0)" stroke-opacity="1.0" stroke-width="1px" fill="rgb(0,0,0)" fill-opacity="1.0"/>
<rect x="156" y="218" width="30" height="30" stroke="rgb(0,0,0)" stroke-opacity="1.0" stroke-width="1px" fill="rgb(0,0,0)" fill-opacity="1.0"/>
<rect x="218" y="218" width="30" height="30" stroke="rgb(0,0,0)" stroke-opacity="1.0" stroke-width="1px" fill="rgb(0,0,0)" fill-opacity="1.0"/>
<rect x="249" y="218" width="30" height="30" stroke="rgb(0,0,0)" stroke-opacity="1.0" stroke-width="1px" fill="rgb(0,0,0)" fill-opacity="1.0"/>
<rect x="280" y="218" width="30" height="30" stroke="rgb(0,0,0)" stroke-opacity="1.0" stroke-width="1px" fill="rgb(0,0,0)" fill-opacity="1.0"/>
<rect x="311" y="218" width="30" height="30" stroke="rgb(0,0,0)" stroke-opacity="1.0" stroke-width="1px" fill="rgb(0,0,0)" fill-opacity="1.0"/>
<rect x="342" y="218" width="30" height="30" stroke="rgb(0,0,0)" stroke-opacity="1.0" stroke-width="1px" fill="rgb(0,0,0)" fill-opacity="1.0"/>
<rect x="373" y="218" width="30" height="30" stroke="rgb(0,0,0)" stroke-opacity="1.0" stroke-width="1px" fill="rgb(0,0,0)" fill-opacity="1.0"/>
<rect x="404" y="218" width="30" height="30" stroke="rgb(0,0,0)" stroke-opacity="1.0" stroke-width="1px" fill="rgb(0,0,0)" fill-opacity="1.0"/>
<rect x="435" y="218" width="30" height="30" stroke="rgb(0,0,0)" stroke-opacity="1.0" stroke-width="1px" fill="rgb(0,0,0)" fill-opacity="1.0"/>
<rect x="466" y="218" width="30" height="30" stroke="rgb(0,0,0)" stroke-opacity="1.0" stroke-width="1px" fill="rgb(0,0,0)" fill-opacity="1.0"/>
<rect x="497" y="218" width="30" height="30" stroke="rgb(0,0,0)" stroke-opacity="1.0" stroke-width="1px" fill="rgb(0,0,0)" fill-opacity="1.0"/>
<rect x="559" y="218" width="30" height="30" stroke="rgb(0,0,0)" stroke-opacity="1.0" stroke-width="1px" fill="rgb(0,0,0)" fill-opacity="1.0"/>
<rect x="590" y="218" width="30" height="30" stroke="rgb(0,0,0)" stroke-opacity="1.0" stroke-width="1px" fill="rgb(0,0,0)" fill-opacity="1.0"/>
<rect x="621" y="218" width="30" height="30" stroke="rgb(0,0,0)" stroke-opacity="1.0" stroke-width="1px" fill="rgb(0,0,0)" fill-opacity="1.0"/>
<rect x="652" y="218" width="30" height="30" stroke="rgb(0,0,0)" stroke-opacity="1.0" stroke-width="1px" fill="rgb(0,0,0)" fill-opacity="1.0"/>
<rect x="683" y="218" width="30" height="30" stroke="rgb(0,0,0)" stroke-opacity="1.0" stroke-width="1px" fill="rgb(0,0,0)" fill-opacity="1.0"/>
<rect x="1" y="249" width="30" height="30" stroke="rgb(0,0,0)" stroke-opacity="1.0" stroke-width="1px" fill="rgb(0,0,0)" fill-opacity="1.0"/>
<rect x="32" y="249" width="30" height="30" stroke="rgb(0,0,0)" stroke-opacity="1.0" stroke-width="1px" fill="rgb(0,0,0)" fill-opacity="1.0"/>
<rect x="63" y="249" width="30" height="30" stroke="rgb(0,0,0)" stroke-opacity="1.0" stroke-width="1px" fill="rgb(0,0,0)" fill-opacity="1.0"/>
<rect x="94" y="249" width="30" height="30" stroke="rgb(0,0,0)" stroke-opacity="1.0" stroke-width="1px" fill="rgb(0,0,0)" fill-opacity="1.0"/>
<rect x="125" y="249" width="30" height="30" stroke="rgb(0,0,0)" stroke-opacity="1.0" stroke-width="1px" fill="rgb(0,0,0)" fill-opacity="1.0"/>
<rect x="156" y="249" width="30" height="30" stroke="rgb(0,0,0)" stroke-opacity="1.0" stroke-width="1px" fill="rgb(0,0,0)" fill-opacity="1.0"/>
<rect x="187" y="249" width="30" height="30" stroke="rgb(0,0,0)" stroke-opacity="1.0" stroke-width="1px" fill="rgb(0,0,0)" fill-opacity="1.0"/>
<rect x="249" y="249" width="30" height="30" stroke="rgb(0,0,0)" stroke-opacity="1.0" stroke-width="1px" fill="rgb(0,0,0)" fill-opacity="1.0"/>
<rect x="280" y="249" width="30" height="30" stroke="rgb(0,0,0)" stroke-opacity="1.0" stroke-width="1px" fill="rgb(0,0,0)" fill-opacity="1.0"/>
<rect x="311" y="249" width="30" height="30" stroke="rgb(0,0,0)" stroke-opacity="1.0" stroke-width="1px" fill="rgb(0,0,0)" fill-opacity="1.0"/>
<rect x="342" y="249" width="30" height="30" stroke="rgb(0,0,0)" stroke-opacity="1.0" stroke-width="1px" fill="rgb(0,0,0)" fill-opacity="1.0"/>
<rect x="373" y="249" width="30" height="30" stroke="rgb(0,0,0)" stroke-opacity="1.0" stroke-width="1px" fill="rgb(0,0,0)" fill-opacity="1.0"/>
<rect x="404" y="249" width="30" height="30" stroke="rgb(0,0,0)" stroke-opacity="1.0" stroke-width="1px" fill="rgb(0,0,0)" fill-opacity="1.0"/>
<rect x="435" y="249" width="30" height="30" stroke="rgb(0,0,0)" stroke-opacity="1.0" stroke-width="1px" fill="rgb(0,0,0)" fill-opacity="1.0"/>
<rect x="466" y="249" width="30" height="30" stroke="rgb(0,0,0)" stroke-opacity="1.0" stroke-width="1px" fill="rgb(0,0,0)" fill-opacity="1.0"/>
<rect x="497" y="249" width="30" height="30" stroke="rgb(0,0,0)" stroke-opacity="1.0" stroke-width="1px" fill="rgb(0,0,0)" fill-opacity="1.0"/>
<rect x="559" y="249" width="30" height="30" stroke="rgb(0,0,0)" stroke-opacity="1.0" stroke-width="1px" fill="rgb(0,0,0)" fill-opacity="1.0"/>
<rect x="590" y="249" width="30" height="30" stroke="rgb(0,0,0)" stroke-opacity="1.0" stroke-width="1px" fill="rgb(0,0,0)" fill-opacity="1.0"/>
<rect x="621" y="249" width="30" height="30" stroke="rgb(0,0,0)" stroke-opacity="1.0" stroke-width="1px" fill="rgb(0,0,0)" fill-opacity="1.0"/>
<rect x="652" y="249" width="30" height="30" stroke="rgb(0,0,0)" stroke-opacity="1.0" stroke-width="1px" fill="rgb(0,0,0)" fill-opacity="1.0"/>
<rect x="683" y="249" width="30" height="30" stroke="rgb(0,0,0)" stroke-opacity="1.0" stroke-width="1px" fill="rgb(0,0,0)" fill-opacity="1.0"/>
<rect x="714" y="249" width="30" height="30" stroke="rgb(0,0,0)" stroke-opacity="1.0" stroke-width="1px" fill="rgb(0,0,0)" fill-opacity="1.0"/>
<rect x="1" y="280" width="30" height="30" stroke="rgb(0,0,0)" stroke-opacity="1.0" stroke-width="1px" fill="rgb(0,0,0)" fill-opacity="1.0"/>
<rect x="32" y="280" width="30" height="30" stroke="rgb(0,0,0)" stroke-opacity="1.0" stroke-width="1px" fill="rgb(0,0,0)" fill-opacity="1.0"/>
<rect x="63" y="280" width="30" height="30" stroke="rgb(0,0,0)" stroke-opacity="1.0" stroke-width="1px" fill="rgb(0,0,0)" fill-opacity="1.0"/>
<rect x="94" y="280" width="30" height="30" stroke="rgb(0,0,0)" stroke-opacity="1.0" stroke-width="1px" fill="rgb(0,0,0)" fill-opacity="1.0"/>
<rect x="125" y="280" width="30" height="30" stroke="rgb(0,0,0)" stroke-opacity="1.0" stroke-width="1px" fill="rgb(0,0,0)" fill-opacity="1.0"/>
<rect x="156" y="280" width="30" height="30" stroke="rgb(0,0,0)" stroke-opacity="1.0" stroke-width="1px" fill="rgb(0,0,0)" fill-opacity="1.0"/>
<rect x="187" y="280" width="30" height="30" stroke="rgb(0,0,0)" stroke-opacity="1.0" stroke-width="1px" fill="rgb(0,0,0)" fill-opacity="1.0"/>
<rect x="218" y="280" width="30" height="30" stroke="rgb(0,0,0)" stroke-opacity="1.0" stroke-width="1px" fill="rgb(0,0,0)" fill-opacity="1.0"/>
<rect x="249" y="280" width="30" height="30" stroke="rgb(0,0,0)" stroke-opacity="1.0" stroke-width="1px" fill="rgb(0,0,0)" fill-opacity="1.0"/>
<rect x="280" y="280" width="30" height="30" stroke="rgb(0,0,0)" stroke-opacity="1.0" stroke-width="1px" fill="rgb(0,0,0)" fill-opacity="1.0"/>
<rect x="311" y="280" width="30" height="30" stroke="rgb(0,0,0)" stroke-opacity="1.0" stroke-width="1px" fill="rgb(0,0,0)" fill-opacity="1.0"/>
<rect x="342" y="280" width="30" height="30" stroke="rgb(0,0,0)" stroke-opacity="1.0" stroke-width="1px" fill="rgb(0,0,0)" fill-opacity="1.0"/>
<rect x="373" y="280" width="30" height="30" stroke="rgb(0,0,0)" stroke-opacity="1.0" stroke-width="1px" fill="rgb(0,0,0)" fill-opacity="1.0"/>
<rect x="404" y="280" width="30" height="30" stroke="rgb(0,0,0)" stroke-opacity="1.0" stroke-width="1px" fill="rgb(0,0,0)" fill-opacity="1.0"/>
<rect x="435" y="280" width="30" height="30" stroke="rgb(0,0,0)" stroke-opacity="1.0" stroke-width="1px" fill="rgb(0,0,0)" fill-opacity="1.0"/>
<rect x="466" y="280" width="30" height="30" stroke="rgb(0,0,0)" stroke-opacity="1.0" stroke-width="1px" fill="rgb(0,0,0)" fill-opacity="1.0"/>
<rect x="528" y="280" width="30" height="30" stroke="rgb(0,0,0)" stroke-opacity="1.0" stroke-width="1px" fill="rgb(0,0,0)" fill-opacity="1.0"/>
<rect x="559" y="280" width="30" height="30" stroke="rgb(0,0,0)" stroke-opacity="1.0" stroke-width="1px" fill="rgb(0,0,0)" fill-opacity="1.0"/>
<rect x="590" y="280" width="30" height="30" stroke="rgb(0,0,0)" stroke-opacity="1.0" stroke-width="1px" fill="rgb(0,0,0)" fill-opacity="1.0"/>
<rect x="621" y="280" width="30" height="30" stroke="rgb(0,0,0)" stroke-opacity="1.0" stroke-width="1px" fill="rgb(0,0,0)" fill-opacity="1.0"/>
<rect x="652" y="280" width="30" height="30" stroke="rgb(0,0,0)" stroke-opacity="1.0" stroke-width="1px" fill="rgb(0,0,0)" fill-opacity="1.0"/>
<rect x="683" y="280" width="30" height="30" stroke="rgb(0,0,0)" stroke-opacity="1.0" stroke-width="1px" fill="rgb(0,0,0)" fill-opacity="1.0"/>
<rect x="714" y="280" width="30" height="30" stroke="rgb(0,0,0)" stroke-opacity="1.0" stroke-width="1px" fill="rgb(0,0,0)" fill-opacity="1.0"/>
<rect x="32" y="311" width="30" height="30" stroke="rgb(0,0,0)" stroke-opacity="1.0" stroke-width="1px" fill="rgb(0,0,0)" fill-opacity="1.0"/>
<rect x="63" y="311" width="30" height="30" stroke="rgb(0,0,0)" stroke-opacity="1.0" stroke-width="1px" fill="rgb(0,0,0)" fill-opacity="1.0"/>
<rect x="94" y="311" width="30" height="30" stroke="rgb(0,0,0)" stroke-opacity="1.0" stroke-width="1px" fill="rgb(0,0,0)" fill-opacity="1.0"/>
<rect x="125" y="311" width="30" height="30" stroke="rgb(0,0,0)" stroke-opacity="1.0" stroke-width="1px" fill="rgb(0,0,0)" fill-opacity="1.0"/>
<rect x="156" y="311" width="30" height="30" stroke="rgb(0,0,0)" stroke-opacity="1.0" stroke-width="1px" fill="rgb(0,0,0)" fill-opacity="1.0"/>
<rect x="187" y="311" width="30" height="30" stroke="rgb(0,0,0)" stroke-opacity="1.0" stroke-width="1px" fill="rgb(0,0,0)" fill-opacity="1.0"/>
<rect x="218" y="311" width="30" height="30" stroke="rgb(0,0,0)" stroke-opacity="1.0" stroke-width="1px" fill="rgb(0,0,0)" fill-opacity="1.0"/>
<rect x="280" y="311" width="30" height="30" stroke="rgb(0,0,0)" stroke-opacity="1.0" stroke-width="1px" fill="rgb(0,0,0)" fill-opacity="1.0"/>
<rect x="311" y="311" width="30" height="30" stroke="rgb(0,0,0)" stroke-opacity="1.0" stroke-width="1px" fill="rgb(0,0,0)" fill-opacity="1.0"/>
<rect x="342" y="311" width="30" height="30" stroke="rgb(0,0,0)" stroke-opacity="1.0" stroke-width="1px" fill="rgb(0,0,0)" fill-opacity="1.0"/>
<rect x="373" y="311" width="30" height="30" stroke="rgb(0,0,0)" stroke-opacity="1.0" stroke-width="1px" fill="rgb(0,0,0)" fill-opacity="1.0"/>
<rect x="404" y="311" width="30" height="30" stroke="rgb(0,0,0)" stroke-opacity="1.0" stroke-width="1px" fill="rgb(0,0,0)" fill-opacity="1.0"/>
<rect x="435" y="311" width="30" height="30" stroke="rgb(0,0,0)" stroke-opacity="1.0" stroke-width="1px" fill="rgb(0,0,0)" fill-opacity="1.0"/>
<rect x="497" y="311" width="30" height="30" stroke="rgb(0,0,0)" stroke-opacity="1.0" stroke-width="1px" fill="rgb(0,0,0)" fill-opacity="1.0"/>
<rect x="528" y="311" width="30" height="30" stroke="rgb(0,0,0)" stroke-opacity="1.0" stroke-width="1px" fill="rgb(0,0,0)" fill-opacity="1.0"/>
<rect x="559" y="311" width="30" height="30" stroke="rgb(0,0,0)" stroke-opacity="1.0" stroke-width="1px" fill="rgb(0,0,0)" fill-opacity="1.0"/>
<rect x="590" y="311" width="30" height="30" stroke="rgb(0,0,0)" stroke-opacity="1.0" stroke-width="1px" fill="rgb(0,0,0)" fill-opacity="1.0"/>
<rect x="621" y="311" width="30" height="30" stroke="rgb(0,0,0)" stroke-opacity="1.0" stroke-width="1px" fill="rgb(0,0,0)" fill-opacity="1.0"/>
<rect x="652" y="311" width="30" height="30" stroke="rgb(0,0,0)" stroke-opacity="1.0" stroke-width="1px" fill="rgb(0,0,0)" fill-opacity="1.0"/>
<rect x="683" y="311" width="30" height="30" stroke="rgb(0,0,0)" stroke-opacity="1.0" stroke-width="1px" fill="rgb(0,0,0)" fill-opacity="1.0"/>
<rect x="63" y="342" width="30" height="30" stroke="rgb(0,0,0)" stroke-opacity="1.0" stroke-width="1px" fill="rgb(0,0,0)" fill-opacity="1.0"/>
<rect x="94" y="342" width="30" height="30" stroke="rgb(0,0,0)" stroke-opacity="1.0" stroke-width="1px" fill="rgb(0,0,0)" fill-opacity="1.0"/>
<rect x="125" y="342" width="30" height="30" stroke="rgb(0,0,0)" stroke-opacity="1.0" stroke-width="1px" fill="rgb(0,0,0)" fill-opacity="1.0"/>
<rect x="156" y="342" width="30" height="30" stroke="rgb(0,0,0)" stroke-opacity="1.0" stroke-width="1px" fill="rgb(0,0,0)" fill-opacity="1.0"/>
<rect x="187" y="342" width="30" height="30" stroke="rgb(0,0,0)" stroke-opacity="1.0" stroke-width="1px" fill="rgb(0,0,0)" fill-opacity="1.0"/>
<rect x="218" y="342" width="30" height="30" stroke="rgb(0,0,0)" stroke-opacity="1.0" stroke-width="1px" fill="rgb(0,0,0)" fill-opacity="1.0"/>
<rect x="249" y="342" width="30" height="30" stroke="rgb(0,0,0)" stroke-opacity="1.0" stroke-width="1px" fill="rgb(0,0,0)" fill-opacity="1.0"/>
<rect x="280" y="342" width="30" height="30" stroke="rgb(0,0,0)" stroke-opacity="1.0" stroke-width="1px" fill="rgb(0,0,0)" fill-opacity="1.0"/>
<rect x="311" y="342" width="30" height="30" stroke="rgb(0,0,0)" stroke-opacity="1.0" stroke-width="1px" fill="rgb(0,0,0)" fill-opacity="1.0"/>
<rect x="373" y="342" width="30" height="30" stroke="rgb(0,0,0)" stroke-opacity="1.0" stroke-width="1px" fill="rgb(0,0,0)" fill-opacity="1.0"/>
<rect x="404" y="342" width="30" height="30" stroke="rgb(0,0,0)" stroke-opacity="1.0" stroke-width="1px" fill="rgb(0,0,0)" fill-opacity="1.0"/>
<rect x="435" y="342" width="30" height="30" stroke="rgb(0,0,0)" stroke-opacity="1.0" stroke-width="1px" fill="rgb(0,0,0)" fill-opacity="1.0"/>
<rect x="497" y="342" width="30" height="30" stroke="rgb(0,0,0)" stroke-opacity="1.0" stroke-width="1px" fill="rgb(0,0,0)" fill-opacity="1.0"/>
<rect x="528" y="342" width="30" height="30" stroke="rgb(0,0,0)" stroke-opacity="1.0" stroke-width="1px" fill="rgb(0,0,0)" fill-opacity="1.0"/>
<rect x="559" y="342" width="30" height="30" stroke="rgb(0,0,0)" stroke-opacity="1.0" stroke-width="1px" fill="rgb(0,0,0)" fill-opacity="1.0"/>
<rect x="590" y="342" width="30" height="30" stroke="rgb(0,0,0)" stroke-opacity="1.0" stroke-width="1px" fill="rgb(0,0,0)" fill-opacity="1.0"/>
<rect x="652" y="342" width="30" height="30" stroke="rgb(0,0,0)" stroke-opacity="1.0" stroke-width="1px" fill="rgb(0,0,0)" fill-opacity="1.0"/>
<rect x="683" y="342" width="30" height="30" stroke="rgb(0,0,0)" stroke-opacity="1.0" stroke-width="1px" fill="rgb(0,0,0)" fill-opacity="1.0"/>
<rect x="714" y="342" width="30" height="30" stroke="rgb(0,0,0)" stroke-opacity="1.0" stroke-width="1px" fill="rgb(0,0,0)" fill-opacity="1.0"/>
<rect x="94" y="373" width="30" height="30" stroke="rgb(0,0,0)" stroke-opacity="1.0" stroke-width="1px" fill="rgb(0,0,0)" fill-opacity="1.0"/>
<rect x="125" y="373" width="30" height="30" stroke="rgb(0,0,0)" stroke-opacity="1.0" stroke-width="1px" fill="rgb(0,0,0)" fill-opacity="1.0"/>
<rect x="156" y="373" width="30" height="30" stroke="rgb(0,0,0)" stroke-opacity="1.0" stroke-width="1px" fill="rgb(0,0,0)" fill-opacity="1.0"/>
<rect x="187" y="373" width="30" height="30" stroke="rgb(0,0,0)" stroke-opacity="1.0" stroke-width="1px" fill="rgb(0,0,0)" fill-opacity="1.0"/>
<rect x="218" y="373" width="30" height="30" stroke="rgb(0,0,0)" stroke-opacity="1.0" stroke-width="1px" fill="rgb(0,0,0)" fill-opacity="1.0"/>
<rect x="249" y="373" width="30" height="30" stroke="rgb(0,0,0)" stroke-opacity="1.0" stroke-width="1px" fill="rgb(0,0,0)" fill-opacity="1.0"/>
<rect x="280" y="373" width="30" height="30" stroke="rgb(0,0,0)" stroke-opacity="1.0" stroke-width="1px" fill="rgb(0,0,0)" fill-opacity="1.0"/>
<rect x="311" y="373" width="30" height="30" stroke="rgb(0,0,0)" stroke-opacity="1.0" stroke-width="1px" fill="rgb(0,0,0)" fill-opacity="1.0"/>
<rect x="342" y="373" width="30" height="30" stroke="rgb(0,0,0)" stroke-opacity="1.0" stroke-width="1px" fill="rgb(0,0,0)" fill-opacity="1.0"/>
<rect x="466" y="373" width="30" height="30" stroke="rgb(0,0,0)" stroke-opacity="1.0" stroke-width="1px" fill="rgb(0,0,0)" fill-opacity="1.0"/>
<rect x="497" y="373" width="30" height="30" stroke="rgb(0,0,0)" stroke-opacity="1.0" stroke-width="1px" fill="rgb(0,0,0)" fill-opacity="1.0"/>
<rect x="528" y="373" width="30" height="30" stroke="rgb(0,0,0)" stroke-opacity="1.0" stroke-width="1px" fill="rgb(0,0,0)" fill-opacity="1.0"/>
<rect x="559" y="373" width="30" height="30" stroke="rgb(0,0,0)" stroke-opacity="1.0" stroke-width="1px" fill="rgb(0,0,0)" fill-opacity="1.0"/>
<rect x="590" y="373" width="30" height="30" stroke="rgb(0,0,0)" stroke-opacity="1.0" stroke-width="1px" fill="rgb(0,0,0)" fill-opacity="1.0"/>
<rect x="621" y="373" width="30" height="30" stroke="rgb(0,0,0)" stroke-opacity="1.0" stroke-width="1px" fill="rgb(0,0,0)" fill-opacity="1.0"/>
<rect x="652" y="373" width="30" height="30" stroke="rgb(0,0,0)" stroke-opacity="1.0" stroke-width="1px" fill="rgb(0,0,0)" fill-opacity="1.0"/>
<rect x="156" y="404" width="30" height="30" stroke="rgb(0,0,0)" stroke-opacity="1.0" stroke-width="1px" fill="rgb(0,0,0)" fill-opacity="1.0"/>
<rect x="187" y="404" width="30" height="30" stroke="rgb(0,0,0)" stroke-opacity="1.0" stroke-width="1px" fill="rgb(0,0,0)" fill-opacity="1.0"/>
<rect x="218" y="404" width="30" height="30" stroke="rgb(0,0,0)" stroke-opacity="1.0" stroke-width="1px" fill="rgb(0,0,0)" fill-opacity="1.0"/>
<rect x="249" y="404" width="30" height="30" stroke="rgb(0,0,0)" stroke-opacity="1.0" stroke-width="1px" fill="rgb(0,0,0)" fill-opacity="1.0"/>
<rect x="280" y="404" width="30" height="30" stroke="rgb(0,0,0)" stroke-opacity="1.0" stroke-width="1px" fill="rgb(0,0,0)" fill-opacity="1.0"/>
<rect x="311" y="404" width="30" height="30" stroke="rgb(0,0,0)" stroke-opacity="1.0" stroke-width="1px" fill="rgb(0,0,0)" fill-opacity="1.0"/>
<rect x="342" y="404" width="30" height="30" stroke="rgb(0,0,0)" stroke-opacity="1.0" stroke-width="1px" fill="rgb(0,0,0)" fill-opacity="1.0"/>
<rect x="373" y="404" width="30" height="30" stroke="rgb(0,0,0)" stroke-opacity="1.0" stroke-width="1px" fill="rgb(0,0,0)" fill-opacity="1.0"/>
<rect x="404" y="404" width="30" height="30" stroke="rgb(0,0,0)" stroke-opacity="1.0" stroke-width="1px" fill="rgb(0,0,0)" fill-opacity="1.0"/>
<rect x="435" y="404" width="30" height="30" stroke="rgb(0,0,0)" stroke-opacity="1.0" stroke-width="1px" fill="rgb(0,0,0)" fill-opacity="1.0"/>
<rect x="466" y="404" width="30" height="30" stroke="rgb(0,0,0)" stroke-opacity="1.0" stroke-width="1px" fill="rgb(0,0,0)" fill-opacity="1.0"/>
<rect x="497" y="404" width="30" height="30" stroke="rgb(0,0,0)" stroke-opacity="1.0" stroke-width="1px" fill="rgb(0,0,0)" fill-opacity="1.0"/>
<rect x="528" y="404" width="30" height="30" stroke="rgb(0,0,0)" stroke-opacity="1.0" stroke-width="1px" fill="rgb(0,0,0)" fill-opacity="1.0"/>
<rect x="559" y="404" width="30" height="30" stroke="rgb(0,0,0)" stroke-opacity="1.0" stroke-width="1px" fill="rgb(0,0,0)" fill-opacity="1.0"/>
<rect x="590" y="404" width="30" height="30" stroke="rgb(0,0,0)" stroke-opacity="1.0" stroke-width="1px" fill="rgb(0,0,0)" fill-opacity="1.0"/>
<rect x="621" y="404" width="30" height="30" stroke="rgb(0,0,0)" stroke-opacity="1.0" stroke-width="1px" fill="rgb(0,0,0)" fill-opacity="1.0"/>
<rect x="652" y="404" width="30" height="30" stroke="rgb(0,0,0)" stroke-opacity="1.0" stroke-width="1px" fill="rgb(0,0,0)" fill-opacity="1.0"/>
<rect x="187" y="435" width="30" height="30" stroke="rgb(0,0,0)" stroke-opacity="1.0" stroke-width="1px" fill="rgb(0,0,0)" fill-opacity="1.0"/>
<rect x="218" y="435" width="30" height="30" stroke="rgb(0,0,0)" stroke-opacity="1.0" stroke-width="1px" fill="rgb(0,0,0)" fill-opacity="1.0"/>
<rect x="249" y="435" width="30" height="30" stroke="rgb(0,0,0)" stroke-opacity="1.0" stroke-width="1px" fill="rgb(0,0,0)" fill-opacity="1.0"/>
<rect x="280" y="435" width="30" height="30" stroke="rgb(0,0,0)" stroke-opacity="1.0" stroke-width="1px" fill="rgb(0,0,0)" fill-opacity="1.0"/>
<rect x="311" y="435" width="30" height="30" stroke="rgb(0,0,0)" stroke-opacity="1.0" stroke-width="1px" fill="rgb(0,0,0)" fill-opacity="1.0"/>
<rect x="342" y="435" width="30" height="30" stroke="rgb(0,0,0)" stroke-opacity="1.0" stroke-width="1px" fill="rgb(0,0,0)" fill-opacity="1.0"/>
<rect x="373" y="435" width="30" height="30" stroke="rgb(0,0,0)" stroke-opacity="1.0" stroke-width="1px" fill="rgb(0,0,0)" fill-opacity="1.0"/>
<rect x="404" y="435" width="30" height="30" stroke="rgb(0,0,0)" stroke-opacity="1.0" stroke-width="1px" fill="rgb(0,0,0)" fill-opacity="1.0"/>
<rect x="435" y="435" width="30" height="30" stroke="rgb(0,0,0)" stroke-opacity="1.0" stroke-width="1px" fill="rgb(0,0,0)" fill-opacity="1.0"/>
<rect x="466" y="435" width="30" height="30" stroke="rgb(0,0,0)" stroke-opacity="1.0" stroke-width="1px" fill="rgb(0,0,0)" fill-opacity="1.0"/>
<rect x="497" y="435" width="30" height="30" stroke="rgb(0,0,0)" stroke-opacity="1.0" stroke-width="1px" fill="rgb(0,0,0)" fill-opacity="1.0"/>
<rect x="528" y="435" width="30" height="30" stroke="rgb(0,0,0)" stroke-opacity="1.0" stroke-width="1px" fill="rgb(0,0,0)" fill-opacity="1.0"/>
<rect x="559" y="435" width="30" height="30" stroke="rgb(0,0,0)" stroke-opacity="1.0" stroke-width="1px" fill="rgb(0,0,0)" fill-opacity="1.0"/>
<rect x="590" y="435" width="30" height="30" stroke="rgb(0,0,0)" stroke-opacity="1.0" stroke-width="1px" fill="rgb(0,0,0)" fill-opacity="1.0"/>
<rect x="621" y="435" width="30" height="30" stroke="rgb(0,0,0)" stroke-opacity="1.0" stroke-width="1px" fill="rgb(0,0,0)" fill-opacity="1.0"/>
<rect x="652" y="435" width="30" height="30" stroke="rgb(0,0,0)" stroke-opacity="1.0" stroke-width="1px" fill="rgb(0,0,0)" fill-opacity="1.0"/>
<rect x="249" y="466" width="30" height="30" stroke="rgb(0,0,0)" stroke-opacity="1.0" stroke-width="1px" fill="rgb(0,0,0)" fill-opacity="1.0"/>
<rect x="280" y="466" width="30" height="30" stroke="rgb(0,0,0)" stroke-opacity="1.0" stroke-width="1px" fill="rgb(0,0,0)" fill-opacity="1.0"/>
<rect x="311" y="466" width="30" height="30" stroke="rgb(0,0,0)" stroke-opacity="1.0" stroke-width="1px" fill="rgb(0,0,0)" fill-opacity="1.0"/>
<rect x="404" y="466" width="30" height="30" stroke="rgb(0,0,0)" stroke-opacity="1.0" stroke-width="1px" fill="rgb(0,0,0)" fill-opacity="1.0"/>
<rect x="435" y="466" width="30" height="30" stroke="rgb(0,0,0)" stroke-opacity="1.0" stroke-width="1px" fill="rgb(0,0,0)" fill-opacity="1.0"/>
<rect x="497" y="466" width="30" height="30" stroke="rgb(0,0,0)" stroke-opacity="1.0" stroke-width="1px" fill="rgb(0,0,0)" fill-opacity="1.0"/>
<rect x="528" y="466" width="30" height="30" stroke="rgb(0,0,0)" stroke-opacity="1.0" stroke-width="1px" fill="rgb(0,0,0)" fill-opacity="1.0"/>
<rect x="590" y="466" width="30" height="30" stroke="rgb(0,0,0)" stroke-opacity="1.0" stroke-width="1px" fill="rgb(0,0,0)" fill-opacity="1.0"/>
<rect x="621" y="466" width="30" height="30" stroke="rgb(0,0,0)" stroke-opacity="1.0" stroke-width="1px" fill="rgb(0,0,0)" fill-opacity="1.0"/>
<rect x="0" y="0" width="1" height="497" stroke="rgb(127,191,255)" stroke-opacity="0.75" stroke-width="1px" fill="rgb(127,191,255)" fill-opacity="0.75"/>
<rect x="31" y="0" width="1" height="497" stroke="rgb(127,191,255)" stroke-opacity="0.75" stroke-width="1px" fill="rgb(127,191,255)" fill-opacity="0.75"/>
<rect x="62" y="0" width="1" height="497" stroke="rgb(127,191,255)" stroke-opacity="0.75" stroke-width="1px" fill="rgb(127,191,255)" fill-opacity="0.75"/>
<rect x="93" y="0" width="1" height="497" stroke="rgb(127,191,255)" stroke-opacity="0.75" stroke-width="1px" fill="rgb(127,191,255)" fill-opacity="0.75"/>
<rect x="124" y="0" width="1" height="497" stroke="rgb(127,191,255)" stroke-opacity="0.75" stroke-width="1px" fill="rgb(127,191,255)" fill-opacity="0.75"/>
<rect x="155" y="0" width="1" height="497" stroke="rgb(127,191,255)" stroke-opacity="0.75" stroke-width="1px" fill="rgb(127,191,255)" fill-opacity="0.75"/>
<rect x="186" y="0" width="1" height="497" stroke="rgb(127,191,255)" stroke-opacity="0.75" stroke-width="1px" fill="rgb(127,191,255)" fill-opacity="0.75"/>
<rect x="217" y="0" width="1" height="497" stroke="rgb(127,191,255)" stroke-opacity="0.75" stroke-width="1px" fill="rgb(127,191,255)" fill-opacity="0.75"/>
<rect x="248" y="0" width="1" height="497" stroke="rgb(127,191,255)" stroke-opacity="0.75" stroke-width="1px" fill="rgb(127,191,255)" fill-opacity="0.75"/>
<rect x="279" y="0" width="1" height="497" stroke="rgb(127,191,255)" stroke-opacity="0.75" stroke-width="1px" fill="rgb(127,191,255)" fill-opacity="0.75"/>
<rect x="310" y="0" width="1" height="497" stroke="rgb(127,191,255)" stroke-opacity="0.75" stroke-width="1px" fill="rgb(127,191,255)" fill-opacity="0.75"/>
<rect x="341" y="0" width="1" height="497" stroke="rgb(127,191,255)" stroke-opacity="0.75" stroke-width="1px" fill="rgb(127,191,255)" fill-opacity="0.75"/>
<rect x="372" y="0" width="1" height="497" stroke="rgb(127,191,255)" stroke-opacity="0.75" stroke-width="1px" fill="rgb(127,191,255)" fill-opacity="0.75"/>
<rect x="403" y="0" width="1" height="497" stroke="rgb(127,191,255)" stroke-opacity="0.75" stroke-width="1px" fill="rgb(127,191,255)" fill-opacity="0.75"/>
<rect x="434" y="0" width="1" height="497" stroke="rgb(127,191,255)" stroke-opacity="0.75" stroke-width="1px" fill="rgb(127,191,255)" fill-opacity="0.75"/>
<rect x="465" y="0" width="1" height="497" stroke="rgb(127,191,255)" stroke-opacity="0.75" stroke-width="1px" fill="rgb(127,191,255)" fill-opacity="0.75"/>
<rect x="496" y="0" width="1" height="497" stroke="rgb(127,191,255)" stroke-opacity="0.75" stroke-width="1px" fill="rgb(127,191,255)" fill-opacity="0.75"/>
<rect x="527" y="0" width="1" height="497" stroke="rgb(127,191,255)" stroke-opacity="0.75" stroke-width="1px" fill="rgb(127,191,255)" fill-opacity="0.75"/>
<rect x="558" y="0" width="1" height="497" stroke="rgb(127,191,255)" stroke-opacity="0.75" stroke-width="1px" fill="rgb(127,191,255)" fill-opacity="0.75"/>
<rect x="589" y="0" width="1" height="497" stroke="rgb(127,191,255)" stroke-opacity="0.75" stroke-width="1px" fill="rgb(127,191,255)" fill-opacity="0.75"/>
<rect x="620" y="0" width="1" height="497" stroke="rgb(127,191,255)" stroke-opacity="0.75" stroke-width="1px" fill="rgb(127,191,255)" fill-opacity="0.75"/>
<rect x="651" y="0" width="1" height="497" stroke="rgb(127,191,255)" stroke-opacity="0.75" stroke-width="1px" fill="rgb(127,191,255)" fill-opacity="0.75"/>
<rect x="682" y="0" width="1" height="497" stroke="rgb(127,191,255)" stroke-opacity="0.75" stroke-width="1px" fill="rgb(127,191,255)" fill-opacity="0.75"/>
<rect x="713" y="0" width="1" height="497" stroke="rgb(127,191,255)" stroke-opacity="0.75" stroke-width="1px" fill="rgb(127,191,255)" fill-opacity="0.75"/>
<rect x="744" y="0" width="1" height="497" stroke="rgb(127,191,255)" stroke-opacity="0.75" stroke-width="1px" fill="rgb(127,191,255)" fill-opacity="0.75"/>
<rect x="0" y="0" width="745" height="1" stroke="rgb(127,191,255)" stroke-opacity="0.75" stroke-width="1px" fill="rgb(127,191,255)" fill-opacity="0.75"/>
<rect x="0" y="31" width="745" height="1" stroke="rgb(127,191,255)" stroke-opacity="0.75" stroke-width="1px" fill="rgb(127,191,255)" fill-opacity="0.75"/>
<rect x="0" y="62" width="745" height="1" stroke="rgb(127,191,255)" stroke-opacity="0.75" stroke-width="1px" fill="rgb(127,191,255)" fill-opacity="0.75"/>
<rect x="0" y="93" width="745" height="1" stroke="rgb(127,191,255)" stroke-opacity="0.75" stroke-width="1px" fill="rgb(127,191,255)" fill-opacity="0.75"/>
<rect x="0" y="124" width="745" height="1" stroke="rgb(127,191,255)" stroke-opacity="0.75" stroke-width="1px" fill="rgb(127,191,255)" fill-opacity="0.75"/>
<rect x="0" y="155" width="745" height="1" stroke="rgb(127,191,255)" stroke-opacity="0.75" stroke-width="1px" fill="rgb(127,191,255)" fill-opacity="0.75"/>
<rect x="0" y="186" width="745" height="1" stroke="rgb(127,191,255)" stroke-opacity="0.75" stroke-width="1px" fill="rgb(127,191,255)" fill-opacity="0.75"/>
<rect x="0" y="217" width="745" height="1" stroke="rgb(127,191,255)" stroke-opacity="0.75" stroke-width="1px" fill="rgb(127,191,255)" fill-opacity="0.75"/>
<rect x="0" y="248" width="745" height="1" stroke="rgb(127,191,255)" stroke-opacity="0.75" stroke-width="1px" fill="rgb(127,191,255)" fill-opacity="0.75"/>
<rect x="0" y="279" width="745" height="1" stroke="rgb(127,191,255)" stroke-opacity="0.75" stroke-width="1px" fill="rgb(127,191,255)" fill-opacity="0.75"/>
<rect x="0" y="310" width="745" height="1" stroke="rgb(127,191,255)" stroke-opacity="0.75" stroke-width="1px" fill="rgb(127,191,255)" fill-opacity="0.75"/>
<rect x="0" y="341" width="745" height="1" stroke="rgb(127,191,255)" stroke-opacity="0.75" stroke-width="1px" fill="rgb(127,191,255)" fill-opacity="0.75"/>
<rect x="0" y="372" width="745" height="1" stroke="rgb(127,191,255)" stroke-opacity="0.75" stroke-width="1px" fill="rgb(127,191,255)" fill-opacity="0.75"/>
<rect x="0" y="403" width="745" height="1" stroke="rgb(127,191,255)" stroke-opacity="0.75" stroke-width="1px" fill="rgb(127,191,255)" fill-opacity="0.75"/>
<rect x="0" y="434" width="745" height="1" stroke="rgb(127,191,255)" stroke-opacity="0.75" stroke-width="1px" fill="rgb(127,191,255)" fill-opacity="0.75"/>
<rect x="0" y="465" width="745" height="1" stroke="rgb(127,191,255)" stroke-opacity="0.75" stroke-width="1px" fill="rgb(127,191,255)" fill-opacity="0.75"/>
<rect x="0" y="496" width="745" height="1" stroke="rgb(127,191,255)" stroke-opacity="0.75" stroke-width="1px" fill="rgb(127,191,255)" fill-opacity="0.75"/>
<rect x="0" y="0" width="1" height="497" stroke="rgb(8,69,183)" stroke-opacity="0.75" stroke-width="1px" fill="rgb(8,69,183)" fill-opacity="0.75"/>
<rect x="248" y="0" width="1" height="497" stroke="rgb(8,69,183)" stroke-opacity="0.75" stroke-width="1px" fill="rgb(8,69,183)" fill-opacity="0.75"/>
<rect x="496" y="0" width="1" height="497" stroke="rgb(8,69,183)" stroke-opacity="0.75" stroke-width="1px" fill="rgb(8,69,183)" fill-opacity="0.75"/>
<rect x="744" y="0" width="1" height="497" stroke="rgb(8,69,183)" stroke-opacity="0.75" stroke-width="1px" fill="rgb(8,69,183)" fill-opacity="0.75"/>
<rect x="0" y="0" width="745" height="1" stroke="rgb(8,69,183)" stroke-opacity="0.75" stroke-width="1px" fill="rgb(8,69,183)" fill-opacity="0.75"/>
<rect x="0" y="248" width="745" height="1" stroke="rgb(8,69,183)" stroke-opacity="0.75" stroke-width="1px" fill="rgb(8,69,183)" fill-opacity="0.75"/>
<rect x="0" y="496" width="745" height="1" stroke="rgb(8,69,183)" stroke-opacity="0.75" stroke-width="1px" fill="rgb(8,69,183)" fill-opacity="0.75"/>
</svg>